<mxfile host="65bd71144e" pages="2">
    <diagram id="rW4Tu4EbM_tbF5WcZ0SO" name="Page-1">
        <mxGraphModel dx="832" dy="576" grid="1" gridSize="10" guides="1" tooltips="1" connect="1" arrows="1" fold="1" page="1" pageScale="1" pageWidth="850" pageHeight="1100" math="0" shadow="0">
            <root>
                <mxCell id="0"/>
                <mxCell id="1" parent="0"/>
                <mxCell id="i8HirrYN5U-cG9wDsiX0-20" value="&lt;&lt;Abstract&gt;&gt;&#10;DomesticAnimal" style="swimlane;fontStyle=3;align=center;verticalAlign=top;childLayout=stackLayout;horizontal=1;startSize=50;horizontalStack=0;resizeParent=1;resizeParentMax=0;resizeLast=0;collapsible=1;marginBottom=0;fontSize=16;" parent="1" vertex="1">
                    <mxGeometry x="190" y="678" width="170" height="58" as="geometry"/>
                </mxCell>
                <mxCell id="i8HirrYN5U-cG9wDsiX0-22" value="" style="line;strokeWidth=1;fillColor=none;align=left;verticalAlign=middle;spacingTop=-1;spacingLeft=3;spacingRight=3;rotatable=0;labelPosition=right;points=[];portConstraint=eastwest;strokeColor=inherit;fontSize=16;" parent="i8HirrYN5U-cG9wDsiX0-20" vertex="1">
                    <mxGeometry y="50" width="170" height="8" as="geometry"/>
                </mxCell>
                <mxCell id="i8HirrYN5U-cG9wDsiX0-24" value="&lt;&lt;Abstract&gt;&gt;&#10;BaggageAnimal" style="swimlane;fontStyle=3;align=center;verticalAlign=top;childLayout=stackLayout;horizontal=1;startSize=50;horizontalStack=0;resizeParent=1;resizeParentMax=0;resizeLast=0;collapsible=1;marginBottom=0;fontSize=16;" parent="1" vertex="1">
                    <mxGeometry x="800" y="678" width="170" height="58" as="geometry"/>
                </mxCell>
                <mxCell id="i8HirrYN5U-cG9wDsiX0-26" value="" style="line;strokeWidth=1;fillColor=none;align=left;verticalAlign=middle;spacingTop=-1;spacingLeft=3;spacingRight=3;rotatable=0;labelPosition=right;points=[];portConstraint=eastwest;strokeColor=inherit;fontSize=16;" parent="i8HirrYN5U-cG9wDsiX0-24" vertex="1">
                    <mxGeometry y="50" width="170" height="8" as="geometry"/>
                </mxCell>
                <mxCell id="i8HirrYN5U-cG9wDsiX0-28" value="Cat" style="swimlane;fontStyle=1;align=center;verticalAlign=top;childLayout=stackLayout;horizontal=1;startSize=26;horizontalStack=0;resizeParent=1;resizeParentMax=0;resizeLast=0;collapsible=1;marginBottom=0;fontSize=16;" parent="1" vertex="1">
                    <mxGeometry x="195" y="848" width="160" height="34" as="geometry"/>
                </mxCell>
                <mxCell id="i8HirrYN5U-cG9wDsiX0-30" value="" style="line;strokeWidth=1;fillColor=none;align=left;verticalAlign=middle;spacingTop=-1;spacingLeft=3;spacingRight=3;rotatable=0;labelPosition=right;points=[];portConstraint=eastwest;strokeColor=inherit;fontSize=16;" parent="i8HirrYN5U-cG9wDsiX0-28" vertex="1">
                    <mxGeometry y="26" width="160" height="8" as="geometry"/>
                </mxCell>
                <mxCell id="i8HirrYN5U-cG9wDsiX0-32" value="Dog" style="swimlane;fontStyle=1;align=center;verticalAlign=top;childLayout=stackLayout;horizontal=1;startSize=26;horizontalStack=0;resizeParent=1;resizeParentMax=0;resizeLast=0;collapsible=1;marginBottom=0;fontSize=16;" parent="1" vertex="1">
                    <mxGeometry x="380" y="848" width="160" height="34" as="geometry"/>
                </mxCell>
                <mxCell id="i8HirrYN5U-cG9wDsiX0-34" value="" style="line;strokeWidth=1;fillColor=none;align=left;verticalAlign=middle;spacingTop=-1;spacingLeft=3;spacingRight=3;rotatable=0;labelPosition=right;points=[];portConstraint=eastwest;strokeColor=inherit;fontSize=16;" parent="i8HirrYN5U-cG9wDsiX0-32" vertex="1">
                    <mxGeometry y="26" width="160" height="8" as="geometry"/>
                </mxCell>
                <mxCell id="i8HirrYN5U-cG9wDsiX0-37" value="Hamster" style="swimlane;fontStyle=1;align=center;verticalAlign=top;childLayout=stackLayout;horizontal=1;startSize=26;horizontalStack=0;resizeParent=1;resizeParentMax=0;resizeLast=0;collapsible=1;marginBottom=0;fontSize=16;" parent="1" vertex="1">
                    <mxGeometry x="10" y="848" width="160" height="34" as="geometry"/>
                </mxCell>
                <mxCell id="i8HirrYN5U-cG9wDsiX0-39" value="" style="line;strokeWidth=1;fillColor=none;align=left;verticalAlign=middle;spacingTop=-1;spacingLeft=3;spacingRight=3;rotatable=0;labelPosition=right;points=[];portConstraint=eastwest;strokeColor=inherit;fontSize=16;" parent="i8HirrYN5U-cG9wDsiX0-37" vertex="1">
                    <mxGeometry y="26" width="160" height="8" as="geometry"/>
                </mxCell>
                <mxCell id="i8HirrYN5U-cG9wDsiX0-42" value="Extends" style="endArrow=block;endSize=16;endFill=0;html=1;rounded=0;fontSize=12;sourcePerimeterSpacing=8;targetPerimeterSpacing=8;exitX=0.5;exitY=0;exitDx=0;exitDy=0;entryX=0.75;entryY=1;entryDx=0;entryDy=0;edgeStyle=orthogonalEdgeStyle;" parent="1" source="i8HirrYN5U-cG9wDsiX0-32" target="i8HirrYN5U-cG9wDsiX0-20" edge="1">
                    <mxGeometry width="160" relative="1" as="geometry">
                        <mxPoint x="370" y="788" as="sourcePoint"/>
                        <mxPoint x="274.4899999999998" y="728.5400000000004" as="targetPoint"/>
                        <Array as="points">
                            <mxPoint x="460" y="798"/>
                            <mxPoint x="318" y="798"/>
                        </Array>
                    </mxGeometry>
                </mxCell>
                <mxCell id="i8HirrYN5U-cG9wDsiX0-43" value="Extends" style="endArrow=block;endSize=16;endFill=0;html=1;rounded=0;fontSize=12;sourcePerimeterSpacing=8;targetPerimeterSpacing=8;exitX=0.5;exitY=0;exitDx=0;exitDy=0;entryX=0.25;entryY=1;entryDx=0;entryDy=0;edgeStyle=orthogonalEdgeStyle;" parent="1" source="i8HirrYN5U-cG9wDsiX0-37" target="i8HirrYN5U-cG9wDsiX0-20" edge="1">
                    <mxGeometry width="160" relative="1" as="geometry">
                        <mxPoint x="180" y="878" as="sourcePoint"/>
                        <mxPoint x="270" y="668" as="targetPoint"/>
                        <Array as="points">
                            <mxPoint x="90" y="798"/>
                            <mxPoint x="232" y="798"/>
                        </Array>
                    </mxGeometry>
                </mxCell>
                <mxCell id="i8HirrYN5U-cG9wDsiX0-45" value="Horse" style="swimlane;fontStyle=1;align=center;verticalAlign=top;childLayout=stackLayout;horizontal=1;startSize=26;horizontalStack=0;resizeParent=1;resizeParentMax=0;resizeLast=0;collapsible=1;marginBottom=0;fontSize=16;" parent="1" vertex="1">
                    <mxGeometry x="620" y="848" width="160" height="34" as="geometry"/>
                </mxCell>
                <mxCell id="i8HirrYN5U-cG9wDsiX0-47" value="" style="line;strokeWidth=1;fillColor=none;align=left;verticalAlign=middle;spacingTop=-1;spacingLeft=3;spacingRight=3;rotatable=0;labelPosition=right;points=[];portConstraint=eastwest;strokeColor=inherit;fontSize=16;" parent="i8HirrYN5U-cG9wDsiX0-45" vertex="1">
                    <mxGeometry y="26" width="160" height="8" as="geometry"/>
                </mxCell>
                <mxCell id="i8HirrYN5U-cG9wDsiX0-49" value="Camel" style="swimlane;fontStyle=1;align=center;verticalAlign=top;childLayout=stackLayout;horizontal=1;startSize=26;horizontalStack=0;resizeParent=1;resizeParentMax=0;resizeLast=0;collapsible=1;marginBottom=0;fontSize=16;" parent="1" vertex="1">
                    <mxGeometry x="805" y="848" width="160" height="34" as="geometry"/>
                </mxCell>
                <mxCell id="i8HirrYN5U-cG9wDsiX0-51" value="" style="line;strokeWidth=1;fillColor=none;align=left;verticalAlign=middle;spacingTop=-1;spacingLeft=3;spacingRight=3;rotatable=0;labelPosition=right;points=[];portConstraint=eastwest;strokeColor=inherit;fontSize=16;" parent="i8HirrYN5U-cG9wDsiX0-49" vertex="1">
                    <mxGeometry y="26" width="160" height="8" as="geometry"/>
                </mxCell>
                <mxCell id="i8HirrYN5U-cG9wDsiX0-53" value="Donkey" style="swimlane;fontStyle=1;align=center;verticalAlign=top;childLayout=stackLayout;horizontal=1;startSize=26;horizontalStack=0;resizeParent=1;resizeParentMax=0;resizeLast=0;collapsible=1;marginBottom=0;fontSize=16;" parent="1" vertex="1">
                    <mxGeometry x="980" y="848" width="160" height="34" as="geometry"/>
                </mxCell>
                <mxCell id="i8HirrYN5U-cG9wDsiX0-55" value="" style="line;strokeWidth=1;fillColor=none;align=left;verticalAlign=middle;spacingTop=-1;spacingLeft=3;spacingRight=3;rotatable=0;labelPosition=right;points=[];portConstraint=eastwest;strokeColor=inherit;fontSize=16;" parent="i8HirrYN5U-cG9wDsiX0-53" vertex="1">
                    <mxGeometry y="26" width="160" height="8" as="geometry"/>
                </mxCell>
                <mxCell id="i8HirrYN5U-cG9wDsiX0-57" value="Extends" style="endArrow=block;endSize=16;endFill=0;html=1;rounded=0;fontSize=12;sourcePerimeterSpacing=8;targetPerimeterSpacing=8;exitX=0.5;exitY=0;exitDx=0;exitDy=0;entryX=0.25;entryY=1;entryDx=0;entryDy=0;" parent="1" source="i8HirrYN5U-cG9wDsiX0-45" target="i8HirrYN5U-cG9wDsiX0-24" edge="1">
                    <mxGeometry width="160" relative="1" as="geometry">
                        <mxPoint x="750" y="788" as="sourcePoint"/>
                        <mxPoint x="845.0499999999997" y="672.1800000000003" as="targetPoint"/>
                        <Array as="points">
                            <mxPoint x="700" y="798"/>
                            <mxPoint x="843" y="798"/>
                        </Array>
                    </mxGeometry>
                </mxCell>
                <mxCell id="i8HirrYN5U-cG9wDsiX0-58" value="Extends" style="endArrow=block;endSize=16;endFill=0;html=1;rounded=0;fontSize=12;sourcePerimeterSpacing=8;targetPerimeterSpacing=8;exitX=0.5;exitY=0;exitDx=0;exitDy=0;entryX=0.5;entryY=1;entryDx=0;entryDy=0;" parent="1" source="i8HirrYN5U-cG9wDsiX0-49" target="i8HirrYN5U-cG9wDsiX0-24" edge="1">
                    <mxGeometry width="160" relative="1" as="geometry">
                        <mxPoint x="710" y="848" as="sourcePoint"/>
                        <mxPoint x="885.3399999999997" y="673.0440000000003" as="targetPoint"/>
                    </mxGeometry>
                </mxCell>
                <mxCell id="i8HirrYN5U-cG9wDsiX0-59" value="Extends" style="endArrow=block;endSize=16;endFill=0;html=1;rounded=0;fontSize=12;sourcePerimeterSpacing=8;targetPerimeterSpacing=8;exitX=0.5;exitY=0;exitDx=0;exitDy=0;entryX=0.75;entryY=1;entryDx=0;entryDy=0;" parent="1" source="i8HirrYN5U-cG9wDsiX0-53" target="i8HirrYN5U-cG9wDsiX0-24" edge="1">
                    <mxGeometry width="160" relative="1" as="geometry">
                        <mxPoint x="890" y="848" as="sourcePoint"/>
                        <mxPoint x="925" y="638" as="targetPoint"/>
                        <Array as="points">
                            <mxPoint x="1060" y="798"/>
                            <mxPoint x="928" y="798"/>
                        </Array>
                    </mxGeometry>
                </mxCell>
                <mxCell id="P2tc8OsPHjvCKxEdoRwC-1" value="&lt;&lt;Abstract&gt;&gt;&#10;Animal" style="swimlane;fontStyle=3;align=center;verticalAlign=top;childLayout=stackLayout;horizontal=1;startSize=50;horizontalStack=0;resizeParent=1;resizeParentMax=0;resizeLast=0;collapsible=1;marginBottom=0;fontSize=16;" parent="1" vertex="1">
                    <mxGeometry x="420" y="130" width="290" height="360" as="geometry"/>
                </mxCell>
                <mxCell id="P2tc8OsPHjvCKxEdoRwC-3" value="" style="line;strokeWidth=1;fillColor=none;align=left;verticalAlign=middle;spacingTop=-1;spacingLeft=3;spacingRight=3;rotatable=0;labelPosition=right;points=[];portConstraint=eastwest;strokeColor=inherit;fontSize=16;" parent="P2tc8OsPHjvCKxEdoRwC-1" vertex="1">
                    <mxGeometry y="50" width="290" height="8" as="geometry"/>
                </mxCell>
                <mxCell id="P2tc8OsPHjvCKxEdoRwC-2" value="- id: int&#10;- dateOfBirth: LocaleDate&#10;- name: String&#10;- commands: List&lt;String&gt;" style="text;strokeColor=none;fillColor=none;align=left;verticalAlign=top;spacingLeft=4;spacingRight=4;overflow=hidden;rotatable=0;points=[[0,0.5],[1,0.5]];portConstraint=eastwest;fontSize=16;fontStyle=2" parent="P2tc8OsPHjvCKxEdoRwC-1" vertex="1">
                    <mxGeometry y="58" width="290" height="132" as="geometry"/>
                </mxCell>
                <mxCell id="P2tc8OsPHjvCKxEdoRwC-4" value="+ animal(int, name)&#10;+ setDateOfBirth(datetime): void&#10;+ getDateOfBirth(): datetime&#10;+ setName(String): void&#10;+ getName(): String&#10;+ getCommands(): List&lt;String&gt;" style="text;strokeColor=none;fillColor=none;align=left;verticalAlign=top;spacingLeft=4;spacingRight=4;overflow=hidden;rotatable=0;points=[[0,0.5],[1,0.5]];portConstraint=eastwest;fontSize=16;fontStyle=2" parent="P2tc8OsPHjvCKxEdoRwC-1" vertex="1">
                    <mxGeometry y="190" width="290" height="170" as="geometry"/>
                </mxCell>
                <mxCell id="P2tc8OsPHjvCKxEdoRwC-6" value="Extends" style="endArrow=block;endSize=16;endFill=0;html=1;rounded=0;exitX=0.5;exitY=0;exitDx=0;exitDy=0;entryX=0.252;entryY=1.017;entryDx=0;entryDy=0;entryPerimeter=0;edgeStyle=orthogonalEdgeStyle;" parent="1" source="i8HirrYN5U-cG9wDsiX0-20" target="P2tc8OsPHjvCKxEdoRwC-4" edge="1">
                    <mxGeometry width="160" relative="1" as="geometry">
                        <mxPoint x="500" y="628" as="sourcePoint"/>
                        <mxPoint x="660" y="628" as="targetPoint"/>
                        <Array as="points">
                            <mxPoint x="275" y="628"/>
                            <mxPoint x="493" y="628"/>
                        </Array>
                    </mxGeometry>
                </mxCell>
                <mxCell id="P2tc8OsPHjvCKxEdoRwC-7" value="Extends" style="endArrow=block;endSize=16;endFill=0;html=1;rounded=0;exitX=0.5;exitY=0;exitDx=0;exitDy=0;entryX=0.745;entryY=1.005;entryDx=0;entryDy=0;entryPerimeter=0;edgeStyle=orthogonalEdgeStyle;" parent="1" source="i8HirrYN5U-cG9wDsiX0-24" target="P2tc8OsPHjvCKxEdoRwC-4" edge="1">
                    <mxGeometry width="160" relative="1" as="geometry">
                        <mxPoint x="265" y="518" as="sourcePoint"/>
                        <mxPoint x="574.1300000000001" y="409.9680000000001" as="targetPoint"/>
                        <Array as="points">
                            <mxPoint x="885" y="628"/>
                            <mxPoint x="636" y="628"/>
                        </Array>
                    </mxGeometry>
                </mxCell>
                <mxCell id="P2tc8OsPHjvCKxEdoRwC-64" value="Extends" style="endArrow=block;endSize=16;endFill=0;html=1;rounded=0;fontSize=12;sourcePerimeterSpacing=8;targetPerimeterSpacing=8;exitX=0.5;exitY=0;exitDx=0;exitDy=0;edgeStyle=orthogonalEdgeStyle;entryX=0.5;entryY=1;entryDx=0;entryDy=0;" parent="1" source="i8HirrYN5U-cG9wDsiX0-28" target="i8HirrYN5U-cG9wDsiX0-20" edge="1">
                    <mxGeometry width="160" relative="1" as="geometry">
                        <mxPoint x="510" y="858" as="sourcePoint"/>
                        <mxPoint x="275" y="668" as="targetPoint"/>
                        <Array as="points">
                            <mxPoint x="275" y="768"/>
                            <mxPoint x="275" y="768"/>
                        </Array>
                    </mxGeometry>
                </mxCell>
            </root>
        </mxGraphModel>
    </diagram>
</mxfile>